<?xml version="1.0" encoding="utf-8"?>
<!-- Generator: Adobe Illustrator 17.0.0, SVG Export Plug-In . SVG Version: 6.00 Build 0)  -->
<!DOCTYPE svg PUBLIC "-//W3C//DTD SVG 1.1//EN" "http://www.w3.org/Graphics/SVG/1.1/DTD/svg11.dtd">
<svg version="1.1" id="Layer_1" xmlns="http://www.w3.org/2000/svg" xmlns:xlink="http://www.w3.org/1999/xlink" x="0px" y="0px"
	 width="100px" height="100px" viewBox="0.25 0.25 100 100" enable-background="new 0.25 0.25 100 100" xml:space="preserve">
<path d="M95,73.5c0,1.972-0.555,3.801-1.445,5.411L65.139,47.116l28.108-24.593C94.341,24.259,95,26.297,95,28.5V73.5z M50,52.89
	l39.111-34.222c-1.604-0.879-3.411-1.417-5.361-1.417h-67.5c-1.953,0-3.76,0.538-5.359,1.417L50,52.89z M60.904,50.819l-9.053,7.927
	c-0.53,0.461-1.189,0.692-1.851,0.692s-1.321-0.231-1.851-0.692l-9.056-7.927L10.317,83.02c1.725,1.082,3.746,1.73,5.933,1.73h67.5
	c2.186,0,4.208-0.648,5.933-1.73L60.904,50.819z M6.752,22.523C5.659,24.259,5,26.297,5,28.5v45c0,1.972,0.552,3.801,1.445,5.411
	l28.413-31.8L6.752,22.523z"/>
</svg>
