<svg xmlns="http://www.w3.org/2000/svg" xmlns:xlink="http://www.w3.org/1999/xlink" width="100" height="616" viewBox="0 0 100 616"><svg width="36" height="144" viewBox="0 0 36 144"><path d="M12.35 16.254H8.665c-.933 0-1.685.626-1.685 1.56v.204c0 .934.75 1.848 1.685 1.848h18.478c.933 0 1.51-.915 1.51-1.848v-.204c0-.934-.577-1.56-1.51-1.56H12.35z" fill="none"/><path fill="#eee" d="M30.752 5.248C27.186 1.682 22.49-.062 17.817.006v16.25h9.327c.933 0 1.51.625 1.51 1.56v.203c0 .93-.577 1.84-1.51 1.84h-9.327v15.96c4.673.07 9.37-1.678 12.935-5.24 6.997-7 6.997-18.346 0-25.34z"/><path fill="#fff" d="M16.292 19.866H8.665c-.933 0-1.685-.915-1.685-1.848v-.204c0-.934.75-1.56 1.685-1.56h9.15V0C13.483 0 8.78 1.75 5.282 5.248c-6.996 6.997-7.063 18.34-.066 25.338 3.5 3.5 8.268 5.247 12.603 5.247V19.867h-1.53z"/><path d="M12.35 52H8.665C7.732 52 7 52.632 7 53.565v.204C7 54.7 7.732 56 8.665 56h18.478C28.077 56 29 54.702 29 53.77v-.204c0-.934-.923-1.566-1.855-1.566H12.35z" fill="none"/><path fill="#999" d="M30.844 40.998C27.277 37.433 22 35.688 18 35.758V52h9.144c.933 0 1.856.632 1.856 1.565v.204c0 .93-.923 2.23-1.855 2.23H18v15.57c4 .07 9.323-1.68 12.89-5.24 6.997-7 6.95-18.34-.046-25.34z"/><path fill="#aaa" d="M16.292 56H8.665C7.732 56 7 54.702 7 53.77v-.204C7 52.632 7.732 52 8.665 52H18V35.75c-5 0-9.13 1.75-12.627 5.248-6.997 6.997-7.02 18.342-.02 25.338C8.85 69.836 13 71.584 18 71.584V56h-1.708z"/><path d="M12.35 88H8.665C7.732 88 7 89.007 7 89.94v.204C7 91.077 7.732 92 8.665 92h18.478c.934 0 1.857-.923 1.857-1.855v-.205c0-.934-.923-1.94-1.855-1.94H12.35z" fill="none"/><path fill="#D71A21" d="M30.844 77.373C27.277 73.808 22 72.063 18 72.133V88h9.144C28.077 88 29 89.007 29 89.94v.204c0 .933-.923 1.856-1.855 1.856H18v15.952c4 .07 9.323-1.675 12.89-5.24 6.997-6.997 6.95-18.342-.046-25.34z"/><path fill="#E2404C" d="M16.292 92H8.665C7.732 92 7 91.077 7 90.145v-.205c0-.933.732-1.94 1.665-1.94H18V72.126c-5 0-9.13 1.75-12.627 5.247-6.997 6.997-7.02 18.342-.02 25.338C8.85 106.21 13 107.96 18 107.96V92h-1.708z"/><path d="M12.236 124H8.55c-.93 0-1.55 1.048-1.55 1.98v.205c0 .934.618 1.815 1.55 1.815h18.48c.933 0 1.97-.88 1.97-1.814v-.204c0-.934-1.037-1.98-1.97-1.98H12.236z" fill="none"/><path fill="#1F1F1F" d="M30.787 113.414C27.22 109.85 22 108.104 18 108.174V124h9.03c.933 0 1.97 1.048 1.97 1.98v.205c0 .934-1.037 1.814-1.97 1.814H18v15.99c4 .07 9.295-1.68 12.86-5.24 6.998-7 6.923-18.34-.073-25.34z"/><path fill="#444" d="M16.177 128H8.55c-.932 0-1.55-.88-1.55-1.814v-.204c0-.934.618-1.982 1.55-1.982H18v-15.833c-5 0-9.186 1.75-12.684 5.247-6.997 6.997-6.99 18.342.007 25.338C8.82 142.252 13 144 18 144v-16h-1.823z"/></svg><svg width="68" height="272" viewBox="0 0 68 272" y="144"><path fill="#eee" d="M62.32 54.565L68 38H26.896c-1.52 0-2.438-1.05-3.326-1.96-.966-.995-1.88-2.04-3.59-2.04h-5.602l-6.166-1.576L0 32.477l12.845 21.997c.355.106.737.185 1.166.185 1.39 0 2.08-.53 2.8-1.1.79-.62 1.6-1.25 3.21-1.25 1.62 0 2.43.64 3.21 1.26.73.57 1.41 1.11 2.8 1.11s2.07-.54 2.8-1.11c.788-.62 1.598-1.26 3.21-1.26 1.62 0 2.43.64 3.218 1.26.726.57 1.41 1.11 2.797 1.11 1.388 0 2.073-.54 2.8-1.115.78-.618 1.593-1.258 3.21-1.258 1.62 0 2.43.64 3.213 1.257.723.574 1.41 1.115 2.795 1.115 1.39 0 2.074-.54 2.8-1.114.783-.618 1.594-1.258 3.21-1.258s2.43.64 3.21 1.257c.728.574 1.41 1.06 2.8 1.06l.236-.066zm-4.017-12.008c0 .683-.555 1.238-1.237 1.238s-1.237-.555-1.237-1.238.55-1.236 1.23-1.236 1.233.56 1.233 1.24zm-4.537 0c0 .683-.557 1.238-1.238 1.238s-1.237-.555-1.237-1.238.56-1.236 1.24-1.236 1.24.56 1.24 1.24zm-4.538 0c0 .683-.556 1.238-1.238 1.238s-1.237-.555-1.237-1.238.555-1.236 1.237-1.236 1.238.56 1.238 1.24zm-4.54 0c0 .683-.555 1.238-1.236 1.238-.683 0-1.238-.555-1.238-1.238s.556-1.236 1.238-1.236c.682 0 1.237.56 1.237 1.24zm-4.537 0c0 .683-.55 1.238-1.23 1.238s-1.233-.555-1.233-1.238.556-1.236 1.237-1.236 1.237.56 1.237 1.24zm-4.53 0c0 .683-.552 1.238-1.24 1.238-.68 0-1.24-.555-1.24-1.238s.56-1.236 1.24-1.236c.687 0 1.24.56 1.24 1.24zm-4.54 0c0 .683-.55 1.238-1.232 1.238s-1.24-.555-1.24-1.238.557-1.236 1.24-1.236c.68 0 1.237.56 1.237 1.24zm-4.532 0c0 .683-.555 1.238-1.24 1.238-.68 0-1.236-.555-1.236-1.238s.556-1.236 1.238-1.236c.684 0 1.24.56 1.24 1.24zM11.08 37.88c0 .88-.715 1.595-1.595 1.595S7.89 38.76 7.89 37.88s.716-1.595 1.595-1.595c.88 0 1.594.716 1.594 1.595zM61 36v.473C61 34.875 59.834 33 58.343 32h-25.99c-.535 0-.97-.515-.97-1s.435-1 .97-1h16.823c-.5-1-2.018-2-3.75-2h-24.9C18.366 28 16 30.05 16 32.215V32h3.98c2.402 0 3.767 1.51 4.762 2.533.846.87 1.363 1.467 2.154 1.467H61z"/><path fill="#fff" d="M37.91 19.52c2.414.64 4.09 3.33 4.09 5.857V26h2.51l2.812-11h-8.31l-1.1 4.52zm9.98-7.064c-.156-.2-.41-.456-.716-.456h-5.9c-.7 0-1.442.583-1.62 1.26l-.193.74h8.31l.24-.838c.08-.294.04-.507-.11-.706zM36.524 21h-6.767C27.595 21 26 23.214 26 25.377V26h14v-.623C40 23.214 38.69 21 36.525 21z"/><path fill="#999" d="M62.32 123.48L68 107H26.896c-1.52 0-2.438-1.05-3.326-1.96-.967-.994-1.88-2.04-3.592-2.04h-5.6l-6.167-1.662-8.21.01 12.85 21.976c.36.106.74.174 1.17.174 1.388 0 2.074-.533 2.8-1.105.783-.618 1.593-1.253 3.21-1.253 1.62 0 2.43.642 3.212 1.26.727.572 1.41 1.114 2.798 1.114 1.387 0 2.073-.54 2.798-1.112.784-.618 1.594-1.258 3.21-1.258 1.62 0 2.43.64 3.214 1.26.725.57 1.41 1.112 2.796 1.112 1.388 0 2.073-.54 2.8-1.113.782-.618 1.593-1.258 3.21-1.258 1.62 0 2.43.64 3.213 1.258.724.572 1.41 1.113 2.796 1.113 1.388 0 2.073-.54 2.8-1.113.782-.618 1.593-1.258 3.21-1.258s2.428.64 3.21 1.258c.727.572 1.41 1.1 2.798 1.1l.238-.024zm-4.017-12.095c0 .683-.555 1.238-1.237 1.238s-1.237-.555-1.237-1.238.55-1.236 1.23-1.236 1.233.55 1.233 1.23zm-4.537 0c0 .683-.557 1.238-1.238 1.238s-1.237-.555-1.237-1.238.56-1.236 1.24-1.236 1.24.55 1.24 1.23zm-4.538 0c0 .683-.556 1.238-1.238 1.238s-1.237-.555-1.237-1.238.555-1.236 1.237-1.236 1.238.55 1.238 1.23zm-4.54 0c0 .683-.555 1.238-1.236 1.238-.683 0-1.238-.555-1.238-1.238s.556-1.236 1.238-1.236c.682 0 1.237.55 1.237 1.23zm-4.537 0c0 .683-.55 1.238-1.23 1.238s-1.233-.555-1.233-1.238.556-1.236 1.237-1.236 1.237.55 1.237 1.23zm-4.53 0c0 .683-.552 1.238-1.24 1.238-.68 0-1.24-.555-1.24-1.238s.56-1.236 1.24-1.236c.687 0 1.24.55 1.24 1.23zm-4.54 0c0 .683-.55 1.238-1.232 1.238s-1.24-.555-1.24-1.238.557-1.236 1.24-1.236c.68 0 1.237.55 1.237 1.23zm-4.532 0c0 .683-.555 1.238-1.24 1.238-.68 0-1.236-.555-1.236-1.238s.556-1.236 1.238-1.236c.684 0 1.24.55 1.24 1.23zm-15.46-4.676c0 .87-.714 1.59-1.594 1.59s-1.594-.72-1.594-1.6.716-1.597 1.595-1.597c.88 0 1.596.716 1.596 1.595zM61 105v.3c0-1.597-1.166-3.3-2.657-4.3h-25.99c-.535 0-.97-.515-.97-1s.435-1 .97-1h16.823c-.5-1-2.018-2-3.75-2h-24.9C18.366 97 16 98.88 16 101.043V101h3.98c2.402 0 3.767 1.51 4.762 2.533.847.87 1.363 1.467 2.155 1.467H61z"/><path fill="#aaa" d="M37.91 88.435c2.414.64 4.09 3.244 4.09 5.77V95h2.51l2.812-11h-8.31l-1.1 4.435zm9.98-7.065c-.156-.2-.41-.37-.716-.37h-5.9c-.7 0-1.442.583-1.62 1.26l-.193.74h8.31l.24-.88c.08-.295.04-.55-.11-.75zM36.524 90h-6.767C27.595 90 26 92.042 26 94.206V95h14v-.794C40 92.042 38.69 90 36.525 90z"/><path fill="#D71A21" d="M62.32 191.416L68 175H26.896c-1.52 0-2.438-1.05-3.326-1.96-.967-.995-1.88-2.04-3.592-2.04h-5.6l-6.167-1.727L0 169.25l12.845 21.96c.355.106.737.167 1.166.167 1.39 0 2.08-.537 2.8-1.11.79-.616 1.6-1.255 3.21-1.255 1.62 0 2.43.642 3.21 1.26.73.57 1.41 1.114 2.8 1.114s2.07-.542 2.8-1.114c.788-.617 1.598-1.258 3.21-1.258 1.62 0 2.43.64 3.218 1.258.726.572 1.41 1.113 2.797 1.113 1.388 0 2.073-.54 2.8-1.113.78-.617 1.593-1.258 3.21-1.258 1.62 0 2.43.64 3.213 1.258.723.572 1.41 1.113 2.795 1.113 1.39 0 2.074-.54 2.8-1.113.783-.617 1.594-1.258 3.21-1.258s2.43.64 3.21 1.258c.728.572 1.41 1.132 2.8 1.132l.236.012zm-4.017-12.16c0 .684-.555 1.238-1.237 1.238s-1.237-.555-1.237-1.238c0-.682.55-1.236 1.23-1.236s1.233.554 1.233 1.236zm-4.537 0c0 .684-.557 1.238-1.238 1.238s-1.237-.555-1.237-1.238c0-.682.56-1.236 1.24-1.236s1.24.554 1.24 1.236zm-4.538 0c0 .684-.556 1.238-1.238 1.238s-1.237-.555-1.237-1.238c0-.682.555-1.236 1.237-1.236s1.238.554 1.238 1.236zm-4.54 0c0 .684-.555 1.238-1.236 1.238-.683 0-1.238-.555-1.238-1.238 0-.682.556-1.236 1.238-1.236.682 0 1.237.554 1.237 1.236zm-4.537 0c0 .684-.55 1.238-1.23 1.238s-1.233-.555-1.233-1.238c0-.682.556-1.236 1.237-1.236s1.237.554 1.237 1.236zm-4.53 0c0 .684-.552 1.238-1.24 1.238-.68 0-1.24-.555-1.24-1.238 0-.682.56-1.236 1.24-1.236.687 0 1.24.554 1.24 1.236zm-4.54 0c0 .684-.55 1.238-1.232 1.238s-1.24-.555-1.24-1.238c0-.682.557-1.236 1.24-1.236.68 0 1.237.554 1.237 1.236zm-4.532 0c0 .684-.555 1.238-1.24 1.238-.68 0-1.236-.555-1.236-1.238 0-.682.556-1.236 1.238-1.236.684 0 1.24.554 1.24 1.236zm-15.46-4.676c0 .88-.714 1.596-1.594 1.596S7.9 175.46 7.9 174.58s.716-1.596 1.595-1.596c.88 0 1.596.717 1.596 1.596zM61 173v.172c0-1.598-1.166-3.172-2.657-4.172h-25.99c-.535 0-.97-.514-.97-.998 0-.486.435-1.002.97-1.002h16.823c-.5-1-2.018-2-3.75-2h-24.9c-2.163 0-4.526 1.752-4.526 3.914V169h3.98c2.402 0 3.767 1.51 4.762 2.533.847.87 1.363 1.467 2.155 1.467H61z"/><path fill="#E2404C" d="M37.91 156.37c2.414.64 4.09 3.18 4.09 5.708V163h2.51l2.812-11h-8.31l-1.1 4.37zm9.98-7.063c-.156-.202-.41-.307-.716-.307h-5.9c-.7 0-1.442.582-1.62 1.26l-.193.74h8.31l.24-.913c.08-.295.04-.58-.11-.78zM36.524 158h-6.767c-2.164 0-3.76 1.914-3.76 4.078V163h14v-.922C40 159.914 38.69 158 36.527 158z"/><path fill="#1F1F1F" d="M62.32 258.613L68 242H26.896c-1.52 0-2.438-1.05-3.326-1.96-.967-.995-1.88-2.04-3.592-2.04h-5.6l-6.167-1.53-8.21.078 12.85 22.01c.36.104.74.19 1.17.19 1.388 0 2.074-.525 2.8-1.098.783-.617 1.593-1.25 3.21-1.25 1.62 0 2.43.646 3.212 1.263.727.572 1.41 1.116 2.798 1.116 1.387 0 2.073-.55 2.798-1.12.784-.62 1.594-1.26 3.21-1.26 1.62 0 2.43.64 3.214 1.256.725.572 1.41 1.113 2.796 1.113 1.388 0 2.073-.54 2.8-1.113.782-.615 1.593-1.256 3.21-1.256 1.62 0 2.43.64 3.213 1.258.724.573 1.41 1.114 2.796 1.114 1.388 0 2.073-.54 2.8-1.113.782-.615 1.593-1.256 3.21-1.256s2.428.64 3.21 1.257c.727.575 1.41 1.036 2.798 1.036l.238-.088zm-4.017-11.962c0 .69-.555 1.24-1.237 1.24s-1.237-.55-1.237-1.24c0-.68.55-1.23 1.23-1.23s1.233.56 1.233 1.24zm-4.537 0c0 .69-.557 1.24-1.238 1.24s-1.237-.55-1.237-1.24c0-.68.56-1.23 1.24-1.23s1.24.56 1.24 1.24zm-4.538 0c0 .69-.556 1.24-1.238 1.24s-1.237-.55-1.237-1.24c0-.68.555-1.23 1.237-1.23s1.238.56 1.238 1.24zm-4.54 0c0 .69-.555 1.24-1.236 1.24-.683 0-1.238-.55-1.238-1.24 0-.68.556-1.23 1.238-1.23.682 0 1.237.56 1.237 1.24zm-4.537 0c0 .69-.55 1.24-1.23 1.24s-1.233-.55-1.233-1.24c0-.68.556-1.23 1.237-1.23s1.237.56 1.237 1.24zm-4.53 0c0 .69-.552 1.24-1.24 1.24-.68 0-1.24-.55-1.24-1.24 0-.68.56-1.23 1.24-1.23.687 0 1.24.56 1.24 1.24zm-4.54 0c0 .69-.55 1.24-1.232 1.24s-1.24-.55-1.24-1.24c0-.68.557-1.23 1.24-1.23.68 0 1.237.56 1.237 1.24zm-4.532 0c0 .69-.555 1.24-1.24 1.24-.68 0-1.236-.55-1.236-1.24 0-.68.556-1.23 1.238-1.23.684 0 1.24.56 1.24 1.24zm-15.46-4.67c0 .88-.714 1.6-1.594 1.6s-1.594-.715-1.594-1.594.716-1.596 1.595-1.596c.88 0 1.596.717 1.596 1.596zM61 240v.567c0-1.598-1.166-3.567-2.657-4.567h-25.99c-.535 0-.97-.514-.97-.998 0-.486.435-1.002.97-1.002h16.823c-.5-1-2.018-2-3.75-2h-24.9c-2.163 0-4.526 2.147-4.526 4.31V236h3.98c2.402 0 3.767 1.51 4.762 2.533.847.87 1.363 1.467 2.155 1.467H61z"/><path fill="#444" d="M37.91 223.568c2.414.64 4.09 3.378 4.09 5.905V230h2.51l2.812-11h-8.31l-1.1 4.568zm9.98-7.064c-.156-.2-.41-.504-.716-.504h-5.9c-.7 0-1.442.582-1.62 1.26l-.193.74h8.31l.24-.814c.08-.295.04-.483-.11-.682zM36.524 225h-6.767c-2.164 0-3.76 2.31-3.76 4.474V230h14v-.526C40 227.31 38.69 225 36.527 225z"/></svg><svg width="100" height="200" viewBox="0 0 100 200" y="416"><circle fill="#eee" cx="50" cy="50" r="50"/><path fill="#444" d="M23.862 46.826c.198 6.27.05 11.893-1.898 15.383-.257.37.068 2.28.748 3.49 1.628 2.88 3.257 2.97 4.885.27.68-1.13.998-3 .734-3.42-2-3.75-2.13-9.54-1.9-15.89 1-.49 1.97-1.46 2.62-2.91 1.85-4.138.12-13.71-4.07-13.71-4.182 0-5.92 9.573-4.07 13.71.73 1.62 1.84 2.65 2.96 3.07m55.17-3.02c.4-.89.62-1.63.7-2.256.06-.14.098-.293.098-.455v-9.965c0-.623-.504-1.128-1.126-1.128-.623 0-1.13.504-1.13 1.127v7.682c-.44-.098-.94-.156-1.49-.19v-7.49c0-.625-.502-1.13-1.125-1.13-.622 0-1.127.505-1.127 1.13v7.49c-.55.034-1.05.093-1.484.19v-7.683c0-.623-.505-1.128-1.127-1.128-.625 0-1.13.504-1.13 1.127v9.965c0 .162.034.315.097.455.08.624.3 1.363.7 2.25.726 1.62 1.84 2.654 2.956 3.074.2 6.27.05 11.89-1.894 15.38-.26.38.065 2.287.745 3.495 1.628 2.88 3.258 2.97 4.885.27.68-1.13 1-3 .734-3.413-2-3.752-2.13-9.54-1.9-15.89.994-.487 1.96-1.46 2.612-2.912"/><path fill="#1F1F1F" d="M32.628 48.987c0 9.845 7.98 17.824 17.823 17.824 9.85 0 17.83-7.97 17.83-17.82 0-9.84-7.98-17.82-17.82-17.82s-17.82 7.98-17.82 17.827m30.455 0c0 6.976-5.654 12.63-12.63 12.63-6.976 0-12.63-5.654-12.63-12.63S43.483 36.36 50.46 36.36c6.975 0 12.63 5.657 12.63 12.632"/><circle fill="#eee" cx="50" cy="150" r="50"/><path fill="#E2404C" d="M23.862 146.826c.198 6.27.05 11.893-1.898 15.383-.257.37.068 2.28.748 3.49 1.628 2.88 3.257 2.97 4.885.27.68-1.13.998-3 .734-3.42-2-3.75-2.13-9.54-1.9-15.89 1-.49 1.97-1.46 2.62-2.91 1.85-4.138.12-13.71-4.07-13.71-4.182 0-5.92 9.573-4.07 13.71.73 1.62 1.84 2.65 2.96 3.07m55.178-3.03c.397-.89.62-1.627.697-2.25.06-.14.098-.293.098-.455v-9.966c0-.623-.503-1.128-1.125-1.128s-1.13.505-1.13 1.128v7.685c-.432-.097-.93-.155-1.482-.19v-7.49c0-.624-.504-1.13-1.127-1.13s-1.128.506-1.128 1.13v7.49c-.55.035-1.05.094-1.48.19v-7.682c0-.622-.506-1.127-1.13-1.127s-1.124.505-1.124 1.128v9.966c0 .162.034.315.097.455.08.624.3 1.363.7 2.25.725 1.62 1.84 2.654 2.955 3.074.2 6.27.05 11.89-1.896 15.38-.26.38.068 2.285.748 3.493 1.628 2.88 3.258 2.97 4.885.27.68-1.13 1-3.002.734-3.414-2.002-3.754-2.132-9.54-1.9-15.89.996-.49 1.963-1.46 2.614-2.914"/><path fill="#D71A21" d="M32.628 148.987c0 9.845 7.98 17.824 17.823 17.824 9.85 0 17.83-7.97 17.83-17.82 0-9.84-7.98-17.82-17.82-17.82s-17.82 7.98-17.82 17.827m30.454 0c0 6.976-5.654 12.63-12.63 12.63-6.976 0-12.63-5.654-12.63-12.63s5.654-12.632 12.63-12.632c6.976 0 12.63 5.658 12.63 12.633"/></svg></svg>